mtllib quaternius_cc0-traffic-cone-1427.mtl
o Cone001
usemtl Orange
v 0 0.9806861552117425 -0.18160215532253687
v 0 0.9806861552117425 -0.18160215532253687
v 0 1.226445242836519 -0.12729123072080384
v 0 1.226445242836519 -0.12729123072080384
v 0 1.226445242836519 -0.12729123072080384
v 0.1102374440752989 1.226445242836519 -0.06364560903777772
v 0.1102374440752989 1.226445242836519 -0.06364560903777772
v 0.1102374440752989 1.226445242836519 -0.06364560903777772
v 0.1572720904214293 0.9806861552117425 -0.09080107766126844
v 0.1572720904214293 0.9806861552117425 -0.09080107766126844
v 0 0.7349271181679597 -0.2359130925695183
v 0 0.7349271181679597 -0.2359130925695183
v 0.20430673676755973 0.7349271181679597 -0.11795654628475916
v 0.20430673676755973 0.7349271181679597 -0.11795654628475916
v -0.1572720904214293 0.9806861552117425 -0.09080106501602003
v -0.1572720904214293 0.9806861552117425 -0.09080106501602003
v -0.1102374440752989 1.226445242836519 -0.06364560271515352
v -0.1102374440752989 1.226445242836519 -0.06364560271515352
v -0.1102374440752989 1.226445242836519 -0.06364560271515352
v -8.495278585583549e-10 1.226445242836519 -0.1016363484349121
v -8.495278585583549e-10 1.226445242836519 -0.1016363484349121
v -8.495278585583549e-10 1.226445242836519 -0.1016363484349121
v 0.08801966043545839 1.226445242836519 -0.050818167894831845
v 0.08801966043545839 1.226445242836519 -0.050818167894831845
v 0.08801966043545839 1.226445242836519 -0.050818167894831845
v 0.11023743143005049 1.226445242836519 0.06364562168302612
v 0.11023743143005049 1.226445242836519 0.06364562168302612
v 0.11023743143005049 1.226445242836519 0.06364562168302612
v 0.1572720651309325 0.9806861552117425 0.09080109030651684
v 0.1572720651309325 0.9806861552117425 0.09080109030651684
v 0 0.48916803054318336 -0.29022400452600294
v 0 0.48916803054318336 -0.29022400452600294
v 0.25134138311369014 0.48916803054318336 -0.14511200226300147
v 0.25134138311369014 0.48916803054318336 -0.14511200226300147
v -0.20430673676755973 0.7349271181679597 -0.11795652099426235
v -0.20430673676755973 0.7349271181679597 -0.11795652099426235
v 0.20430672412231132 0.7349271181679597 0.11795655893000756
v 0.20430672412231132 0.7349271181679597 0.11795655893000756
v -0.1572720904214293 0.9806861552117425 0.09080106501602003
v -0.1572720904214293 0.9806861552117425 0.09080106501602003
v -0.1102374440752989 1.226445242836519 0.06364560271515352
v -0.1102374440752989 1.226445242836519 0.06364560271515352
v -0.1102374440752989 1.226445242836519 0.06364560271515352
v -0.088019679403331 1.226445242836519 -0.05081816157220764
v -0.088019679403331 1.226445242836519 -0.05081816157220764
v -0.088019679403331 1.226445242836519 -0.05081816157220764
v 0.08801964779020999 1.226445242836519 0.05081818370139235
v 0.08801964779020999 1.226445242836519 0.05081818370139235
v 0.08801964779020999 1.226445242836519 0.05081818370139235
v 1.7534818176895346e-8 0.0457446919111959 -0.34812191822574334
v 1.7534818176895346e-8 0.0457446919111959 -0.34812191822574334
v 1.7534818176895346e-8 0.0457446919111959 -0.34812191822574334
v 0.3014824485374845 0.0457446919111959 -0.17406094646762327
v 0.3014824485374845 0.0457446919111959 -0.17406094646762327
v 0.3014824485374845 0.0457446919111959 -0.17406094646762327
v -1.112815318487102e-8 1.226445242836519 0.12729123072080384
v -1.112815318487102e-8 1.226445242836519 0.12729123072080384
v -1.112815318487102e-8 1.226445242836519 0.12729123072080384
v -1.587616462754264e-8 0.9806861552117425 0.18160215532253687
v -1.587616462754264e-8 0.9806861552117425 0.18160215532253687
v 0 0.24340894291840698 -0.3445349417729844
v 0 0.24340894291840698 -0.3445349417729844
v 0.29837601681457215 0.24340894291840698 -0.1722674708864922
v 0.29837601681457215 0.24340894291840698 -0.1722674708864922
v -0.25134138311369014 0.48916803054318336 -0.14511198961775307
v -0.25134138311369014 0.48916803054318336 -0.14511198961775307
v 0.2513413325326965 0.48916803054318336 0.14511202755349828
v 0.2513413325326965 0.48916803054318336 0.14511202755349828
v -0.20430673676755973 0.7349271181679597 0.11795652099426235
v -0.20430673676755973 0.7349271181679597 0.11795652099426235
v -2.0624177577645335e-8 0.7349271181679597 0.2359130925695183
v -2.0624177577645335e-8 0.7349271181679597 0.2359130925695183
v -0.088019679403331 1.226445242836519 0.050818167894831845
v -0.088019679403331 1.226445242836519 0.050818167894831845
v -0.088019679403331 1.226445242836519 0.050818167894831845
v -0.3014824485374845 0.0457446919111959 -0.17406094646762327
v -0.3014824485374845 0.0457446919111959 -0.17406094646762327
v -0.3014824485374845 0.0457446919111959 -0.17406094646762327
v -9.73486026540922e-9 1.226445242836519 0.1016363484349121
v -9.73486026540922e-9 1.226445242836519 0.1016363484349121
v -9.73486026540922e-9 1.226445242836519 0.1016363484349121
v 0.3014823979564909 0.0457446919111959 0.17406097175812008
v 0.3014823979564909 0.0457446919111959 0.17406097175812008
v 0.3014823979564909 0.0457446919111959 0.17406097175812008
v -0.3014824485374845 0.0457446919111959 0.17406092117712646
v -0.3014824485374845 0.0457446919111959 0.17406092117712646
v -0.3014824485374845 0.0457446919111959 0.17406092117712646
v -1.2898967143614093e-8 0.0457446919111959 0.34812191822574334
v -1.2898967143614093e-8 0.0457446919111959 0.34812191822574334
v -1.2898967143614093e-8 0.0457446919111959 0.34812191822574334
v 0 0.03238301431368029 -0.39117011207678587
v 0 0.03238301431368029 -0.39117011207678587
v 0 0.03238301431368029 -0.39117011207678587
v 0.3387632710439732 0.03238301431368029 -0.19558504339314453
v 0.3387632710439732 0.03238301431368029 -0.19558504339314453
v 0.3387632710439732 0.03238301431368029 -0.19558504339314453
v -0.29837601681457215 0.24340894291840698 -0.1722674582412438
v -0.29837601681457215 0.24340894291840698 -0.1722674582412438
v 0.29837601681457215 0.24340894291840698 0.172267496176989
v 0.29837601681457215 0.24340894291840698 0.172267496176989
v -0.25134138311369014 0.48916803054318336 0.14511198961775307
v -0.25134138311369014 0.48916803054318336 0.14511198961775307
v -2.5372190527748032e-8 0.48916803054318336 0.29022400452600294
v -2.5372190527748032e-8 0.48916803054318336 0.29022400452600294
v -0.3387632710439732 0.03238301431368029 -0.19558501810264772
v -0.3387632710439732 0.03238301431368029 -0.19558501810264772
v -0.3387632710439732 0.03238301431368029 -0.19558501810264772
v 0.3387632457534764 0.03238301431368029 0.19558508132888974
v 0.3387632457534764 0.03238301431368029 0.19558508132888974
v 0.3387632457534764 0.03238301431368029 0.19558508132888974
v -0.29837601681457215 0.24340894291840698 0.1722674582412438
v -0.29837601681457215 0.24340894291840698 0.1722674582412438
v -3.0120206492712885e-8 0.24340894291840698 0.3445349670634812
v -3.0120206492712885e-8 0.24340894291840698 0.3445349670634812
v -0.3387632710439732 0.03238301431368029 0.19558501810264772
v -0.3387632710439732 0.03238301431368029 0.19558501810264772
v -0.3387632710439732 0.03238301431368029 0.19558501810264772
v -3.4197177453667305e-8 0.03238301431368029 0.39117011207678587
v -3.4197177453667305e-8 0.03238301431368029 0.39117011207678587
v -3.4197177453667305e-8 0.03238301431368029 0.39117011207678587
v -0.4657259149850006 -0.0357523154604138 0.4657259149850006
v -0.4657259149850006 -0.0357523154604138 0.4657259149850006
v -0.4657259149850006 -0.0357523154604138 0.4657259149850006
v -0.4657259149850006 -0.0357523154604138 0.4657259149850006
v -0.4657259149850006 -0.0357523154604138 -0.4657259149850006
v -0.4657259149850006 -0.0357523154604138 -0.4657259149850006
v -0.4657259149850006 -0.0357523154604138 -0.4657259149850006
v -0.4657259149850006 -0.0357523154604138 -0.4657259149850006
v 0.4657259149850006 -0.0357523154604138 -0.4657259149850006
v 0.4657259149850006 -0.0357523154604138 -0.4657259149850006
v 0.4657259149850006 -0.0357523154604138 -0.4657259149850006
v 0.4657259149850006 -0.0357523154604138 -0.4657259149850006
v 0.4657259149850006 -0.0357523154604138 0.4657259149850006
v 0.4657259149850006 -0.0357523154604138 0.4657259149850006
v 0.4657259149850006 -0.0357523154604138 0.4657259149850006
v 0.4657259149850006 -0.0357523154604138 0.4657259149850006
v 0.4657259149850006 -0.0016846505733667527 0.49979357987204764
v 0.4657259149850006 -0.0016846505733667527 0.49979357987204764
v 0.4657259149850006 -0.0016846505733667527 0.49979357987204764
v -0.4657259149850006 -0.0016846505733667527 0.49979357987204764
v -0.4657259149850006 -0.0016846505733667527 0.49979357987204764
v -0.4657259149850006 -0.0016846505733667527 0.49979357987204764
v -0.49979357987204764 -0.0016846505733667527 0.4657259149850006
v -0.49979357987204764 -0.0016846505733667527 0.4657259149850006
v -0.49979357987204764 -0.0016846505733667527 0.4657259149850006
v -0.49979357987204764 -0.0016846505733667527 -0.4657259149850006
v -0.49979357987204764 -0.0016846505733667527 -0.4657259149850006
v -0.49979357987204764 -0.0016846505733667527 -0.4657259149850006
v -0.4657259149850006 -0.0016846505733667527 -0.49979357987204764
v -0.4657259149850006 -0.0016846505733667527 -0.49979357987204764
v -0.4657259149850006 -0.0016846505733667527 -0.49979357987204764
v 0.4657259149850006 -0.0016846505733667527 -0.49979357987204764
v 0.4657259149850006 -0.0016846505733667527 -0.49979357987204764
v 0.4657259149850006 -0.0016846505733667527 -0.49979357987204764
v 0.49979357987204764 -0.0016846505733667527 -0.4657259149850006
v 0.49979357987204764 -0.0016846505733667527 -0.4657259149850006
v 0.49979357987204764 -0.0016846505733667527 -0.4657259149850006
v 0.49979357987204764 -0.0016846505733667527 0.4657259149850006
v 0.49979357987204764 -0.0016846505733667527 0.4657259149850006
v 0.49979357987204764 -0.0016846505733667527 0.4657259149850006
v 0.4657259149850006 -0.0016846505733667527 0.49979357987204764
v 0.4657259149850006 -0.0016846505733667527 0.49979357987204764
v 0.4657259149850006 -0.0016846505733667527 0.49979357987204764
v -0.49979357987204764 -0.0016846505733667527 0.4657259149850006
v -0.49979357987204764 -0.0016846505733667527 0.4657259149850006
v -0.49979357987204764 -0.0016846505733667527 0.4657259149850006
v -0.4657259149850006 -0.0016846505733667527 -0.49979357987204764
v -0.4657259149850006 -0.0016846505733667527 -0.49979357987204764
v -0.4657259149850006 -0.0016846505733667527 -0.49979357987204764
v 0.49979357987204764 -0.0016846505733667527 -0.4657259149850006
v 0.49979357987204764 -0.0016846505733667527 -0.4657259149850006
v 0.49979357987204764 -0.0016846505733667527 -0.4657259149850006
v -0.4657259149850006 -0.0016846505733667527 0.49979357987204764
v -0.4657259149850006 -0.0016846505733667527 0.49979357987204764
v -0.4657259149850006 -0.0016846505733667527 0.49979357987204764
v -0.49979357987204764 -0.0016846505733667527 -0.4657259149850006
v -0.49979357987204764 -0.0016846505733667527 -0.4657259149850006
v -0.49979357987204764 -0.0016846505733667527 -0.4657259149850006
v 0.4657259149850006 -0.0016846505733667527 -0.49979357987204764
v 0.4657259149850006 -0.0016846505733667527 -0.49979357987204764
v 0.4657259149850006 -0.0016846505733667527 -0.49979357987204764
v 0.49979357987204764 -0.0016846505733667527 0.4657259149850006
v 0.49979357987204764 -0.0016846505733667527 0.4657259149850006
v 0.49979357987204764 -0.0016846505733667527 0.4657259149850006
v 0.4657259149850006 0.03238301431368029 0.4657259149850006
v 0.4657259149850006 0.03238301431368029 0.4657259149850006
v 0.4657259149850006 0.03238301431368029 0.4657259149850006
v 0.4657259149850006 0.03238301431368029 0.4657259149850006
v -0.4657259149850006 0.03238301431368029 0.4657259149850006
v -0.4657259149850006 0.03238301431368029 0.4657259149850006
v -0.4657259149850006 0.03238301431368029 0.4657259149850006
v -0.4657259149850006 0.03238301431368029 0.4657259149850006
v -0.4657259149850006 0.03238301431368029 -0.4657259149850006
v -0.4657259149850006 0.03238301431368029 -0.4657259149850006
v -0.4657259149850006 0.03238301431368029 -0.4657259149850006
v -0.4657259149850006 0.03238301431368029 -0.4657259149850006
v 0.4657259149850006 0.03238301431368029 -0.4657259149850006
v 0.4657259149850006 0.03238301431368029 -0.4657259149850006
v 0.4657259149850006 0.03238301431368029 -0.4657259149850006
v 0.4657259149850006 0.03238301431368029 -0.4657259149850006
vn 0.4910893096747568 0.18799589749490567 -0.8505814672612234
vn -0.4910893096747568 0.18799589749490567 -0.8505814672612234
vn 0 1 0
vn 0.4910893096747568 0.18799589749490567 -0.8505814672612234
vn -0.4910893096747568 0.18799589749490567 -0.8505814672612234
vn 0 1 0
vn 0.4910893096747568 0.18799589749490567 -0.8505814672612234
vn 0.9821701261212297 0.1879942641545423 0
vn 0.4910893096747568 0.18799589749490567 -0.8505814672612234
vn 0.9821701261212297 0.1879942641545423 0
vn 0.4910893096747568 0.18799589749490567 -0.8505814672612234
vn -0.4910893096747568 0.18799589749490567 -0.8505814672612234
vn 0.4910893096747568 0.18799589749490567 -0.8505814672612234
vn 0.9821701261212297 0.1879942641545423 0
vn -0.4910893096747568 0.18799589749490567 -0.8505814672612234
vn -0.9821701261212297 0.1879942641545423 0
vn 0 1 0
vn -0.4910893096747568 0.18799589749490567 -0.8505814672612234
vn -0.9821701261212297 0.1879942641545423 0
vn 0 1 0
vn 0.492010532209162 -0.17790380062405675 0.8522182079249262
vn -0.492010532209162 -0.17790380062405675 0.8522182079249262
vn 0 1 0
vn -0.492010532209162 -0.17790380062405675 0.8522182079249262
vn -0.9840470331747764 -0.1779085059796765 0
vn 0 1 0
vn 0.4910893096747568 0.18799589749490567 0.8505814672612234
vn 0.9821701261212297 0.1879942641545423 0
vn 0.4910893096747568 0.18799589749490567 0.8505814672612234
vn 0.9821701261212297 0.1879942641545423 0
vn 0.4910893096747568 0.18799589749490567 -0.8505814672612234
vn -0.4910893096747568 0.18799589749490567 -0.8505814672612234
vn 0.4910893096747568 0.18799589749490567 -0.8505814672612234
vn 0.9821701261212297 0.1879942641545423 0
vn -0.4910893096747568 0.18799589749490567 -0.8505814672612234
vn -0.9821701261212297 0.1879942641545423 0
vn 0.4910893096747568 0.18799589749490567 0.8505814672612234
vn 0.9821701261212297 0.1879942641545423 0
vn -0.4910893096747568 0.18799589749490567 0.8505814672612234
vn -0.9821701261212297 0.1879942641545423 0
vn 0 1 0
vn -0.4910893096747568 0.18799589749490567 0.8505814672612234
vn -0.9821701261212297 0.1879942641545423 0
vn 0 1 0
vn 0.492010532209162 -0.17790380062405675 0.8522182079249262
vn 0.9840470331747764 -0.1779085059796765 0
vn 0 1 0
vn -0.492010532209162 -0.17790380062405675 -0.8522182079249262
vn -0.9840470331747764 -0.1779085059796765 0
vn 0 1 0
vn 0.492010532209162 -0.17790380062405675 0.8522182079249262
vn -0.492010532209162 -0.17790380062405675 0.8522182079249262
vn 0 1 0
vn -0.492010532209162 -0.17790380062405675 0.8522182079249262
vn -0.9840470331747764 -0.1779085059796765 0
vn 0 1 0
vn 0.4910893096747568 0.18799589749490567 0.8505814672612234
vn -0.4910893096747568 0.18799589749490567 0.8505814672612234
vn 0.4910893096747568 0.18799589749490567 0.8505814672612234
vn -0.4910893096747568 0.18799589749490567 0.8505814672612234
vn 0.4910893096747568 0.18799589749490567 -0.8505814672612234
vn -0.4910893096747568 0.18799589749490567 -0.8505814672612234
vn 0.4910893096747568 0.18799589749490567 -0.8505814672612234
vn 0.9821701261212297 0.1879942641545423 0
vn -0.4910893096747568 0.18799589749490567 -0.8505814672612234
vn -0.9821701261212297 0.1879942641545423 0
vn 0.4910893096747568 0.18799589749490567 0.8505814672612234
vn 0.9821701261212297 0.1879942641545423 0
vn -0.4910893096747568 0.18799589749490567 0.8505814672612234
vn -0.9821701261212297 0.1879942641545423 0
vn 0.4910893096747568 0.18799589749490567 0.8505814672612234
vn -0.4910893096747568 0.18799589749490567 0.8505814672612234
vn 0 1 0
vn 0.492010532209162 -0.17790380062405675 -0.8522182079249262
vn 0.9840470331747764 -0.1779085059796765 0
vn 0 1 0
vn 0.492010532209162 -0.17790380062405675 0.8522182079249262
vn 0.9840470331747764 -0.1779085059796765 0
vn 0 1 0
vn 0.492010532209162 -0.17790380062405675 -0.8522182079249262
vn -0.492010532209162 -0.17790380062405675 -0.8522182079249262
vn 0 1 0
vn -0.492010532209162 -0.17790380062405675 -0.8522182079249262
vn -0.9840470331747764 -0.1779085059796765 0
vn 0 1 0
vn 0.492010532209162 -0.17790380062405675 -0.8522182079249262
vn 0.9840470331747764 -0.1779085059796765 0
vn 0 1 0
vn 0.492010532209162 -0.17790380062405675 -0.8522182079249262
vn -0.492010532209162 -0.17790380062405675 -0.8522182079249262
vn 0 1 0
vn 0.4910893096747568 0.18799589749490567 -0.8505814672612234
vn -0.4910893096747568 0.18799589749490567 -0.8505814672612234
vn 0 1 0
vn 0.4910893096747568 0.18799589749490567 -0.8505814672612234
vn 0.9821701261212297 0.1879942641545423 0
vn -0.4910893096747568 0.18799589749490567 -0.8505814672612234
vn -0.9821701261212297 0.1879942641545423 0
vn 0.4910893096747568 0.18799589749490567 0.8505814672612234
vn 0.9821701261212297 0.1879942641545423 0
vn -0.4910893096747568 0.18799589749490567 0.8505814672612234
vn -0.9821701261212297 0.1879942641545423 0
vn 0.4910893096747568 0.18799589749490567 0.8505814672612234
vn -0.4910893096747568 0.18799589749490567 0.8505814672612234
vn 0 1 0
vn -0.4910893096747568 0.18799589749490567 -0.8505814672612234
vn -0.9821701261212297 0.1879942641545423 0
vn 0 1 0
vn 0.4910893096747568 0.18799589749490567 0.8505814672612234
vn 0.9821701261212297 0.1879942641545423 0
vn -0.4910893096747568 0.18799589749490567 0.8505814672612234
vn -0.9821701261212297 0.1879942641545423 0
vn 0.4910893096747568 0.18799589749490567 0.8505814672612234
vn -0.4910893096747568 0.18799589749490567 0.8505814672612234
vn 0 1 0
vn -0.4910893096747568 0.18799589749490567 0.8505814672612234
vn -0.9821701261212297 0.1879942641545423 0
vn 0 1 0
vn 0.4910893096747568 0.18799589749490567 0.8505814672612234
vn -0.4910893096747568 0.18799589749490567 0.8505814672612234
vn 0 -0.7071067811865476 0.7071067811865476
vn 0 -1 0
vn -0.5772835895319283 -0.5773836061307648 0.5773836061307648
vn -0.7071067811865476 -0.7071067811865476 0
vn 0 -0.7071067811865476 -0.7071067811865476
vn 0 -1 0
vn -0.5772835895319283 -0.5773836061307648 -0.5773836061307648
vn -0.7071067811865476 -0.7071067811865476 0
vn 0 -0.7071067811865476 -0.7071067811865476
vn 0 -1 0
vn 0.5772835895319283 -0.5773836061307648 -0.5773836061307648
vn 0.7071067811865476 -0.7071067811865476 0
vn 0 -0.7071067811865476 0.7071067811865476
vn 0 -1 0
vn 0.5772835895319283 -0.5773836061307648 0.5773836061307648
vn 0.7071067811865476 -0.7071067811865476 0
vn 0 1 0
vn 0 -0.7071067811865476 0.7071067811865476
vn 0.5772835895319283 -0.5773836061307648 0.5773836061307648
vn 0 1 0
vn 0 -0.7071067811865476 0.7071067811865476
vn -0.5772835895319283 -0.5773836061307648 0.5773836061307648
vn 0 1 0
vn -0.5772835895319283 -0.5773836061307648 0.5773836061307648
vn -0.7071067811865476 -0.7071067811865476 0
vn 0 1 0
vn -0.5772835895319283 -0.5773836061307648 -0.5773836061307648
vn -0.7071067811865476 -0.7071067811865476 0
vn 0 1 0
vn 0 -0.7071067811865476 -0.7071067811865476
vn -0.5772835895319283 -0.5773836061307648 -0.5773836061307648
vn 0 1 0
vn 0 -0.7071067811865476 -0.7071067811865476
vn 0.5772835895319283 -0.5773836061307648 -0.5773836061307648
vn 0 1 0
vn 0.5772835895319283 -0.5773836061307648 -0.5773836061307648
vn 0.7071067811865476 -0.7071067811865476 0
vn 0 1 0
vn 0.5772835895319283 -0.5773836061307648 0.5773836061307648
vn 0.7071067811865476 -0.7071067811865476 0
vn 0 0.7071067811865476 0.7071067811865476
vn 0 1 0
vn 0.5772835895319283 0.5773836061307648 0.5773836061307648
vn 0 1 0
vn -0.5772835895319283 0.5773836061307648 0.5773836061307648
vn -0.7071067811865476 0.7071067811865476 0
vn 0 0.7071067811865476 -0.7071067811865476
vn 0 1 0
vn -0.5772835895319283 0.5773836061307648 -0.5773836061307648
vn 0 1 0
vn 0.5772835895319283 0.5773836061307648 -0.5773836061307648
vn 0.7071067811865476 0.7071067811865476 0
vn 0 0.7071067811865476 0.7071067811865476
vn 0 1 0
vn -0.5772835895319283 0.5773836061307648 0.5773836061307648
vn 0 1 0
vn -0.5772835895319283 0.5773836061307648 -0.5773836061307648
vn -0.7071067811865476 0.7071067811865476 0
vn 0 0.7071067811865476 -0.7071067811865476
vn 0 1 0
vn 0.5772835895319283 0.5773836061307648 -0.5773836061307648
vn 0 1 0
vn 0.5772835895319283 0.5773836061307648 0.5773836061307648
vn 0.7071067811865476 0.7071067811865476 0
vn 0 0.7071067811865476 0.7071067811865476
vn 0 1 0
vn 0.5772835895319283 0.5773836061307648 0.5773836061307648
vn 0.7071067811865476 0.7071067811865476 0
vn 0 0.7071067811865476 0.7071067811865476
vn 0 1 0
vn -0.5772835895319283 0.5773836061307648 0.5773836061307648
vn -0.7071067811865476 0.7071067811865476 0
vn 0 0.7071067811865476 -0.7071067811865476
vn 0 1 0
vn -0.5772835895319283 0.5773836061307648 -0.5773836061307648
vn -0.7071067811865476 0.7071067811865476 0
vn 0 0.7071067811865476 -0.7071067811865476
vn 0 1 0
vn 0.5772835895319283 0.5773836061307648 -0.5773836061307648
vn 0.7071067811865476 0.7071067811865476 0
f 1//1 4//4 7//7
f 1//1 7//7 9//9
f 15//15 18//18 5//5
f 15//15 5//5 2//2
f 6//6 3//3 20//20
f 6//6 20//20 23//23
f 10//10 8//8 28//28
f 10//10 28//28 30//30
f 31//31 11//11 13//13
f 31//31 13//13 33//33
f 40//40 43//43 19//19
f 40//40 19//19 16//16
f 3//3 17//17 44//44
f 3//3 44//44 20//20
f 26//26 6//6 23//23
f 26//26 23//23 47//47
f 24//24 22//22 52//52
f 24//24 52//52 54//54
f 29//29 27//27 57//57
f 29//29 57//57 59//59
f 65//65 35//35 12//12
f 65//65 12//12 32//32
f 34//34 14//14 38//38
f 34//34 38//38 68//68
f 60//60 58//58 42//42
f 60//60 42//42 39//39
f 17//17 41//41 73//73
f 17//17 73//73 44//44
f 21//21 45//45 77//77
f 21//21 77//77 51//51
f 56//56 26//26 47//47
f 56//56 47//47 79//79
f 49//49 25//25 55//55
f 49//49 55//55 84//84
f 82//82 53//53 50//50
f 50//50 76//76 85//85
f 85//85 88//88 82//82
f 50//50 85//85 82//82
f 92//92 61//61 63//63
f 92//92 63//63 95//95
f 102//102 70//70 36//36
f 102//102 36//36 66//66
f 67//67 37//37 71//71
f 67//67 71//71 103//103
f 41//41 56//56 79//79
f 41//41 79//79 73//73
f 46//46 75//75 87//87
f 46//46 87//87 78//78
f 81//81 48//48 83//83
f 81//81 83//83 90//90
f 74//74 80//80 89//89
f 74//74 89//89 86//86
f 106//106 97//97 62//62
f 106//106 62//62 93//93
f 96//96 64//64 100//100
f 96//96 100//100 110//110
f 104//104 72//72 69//69
f 104//104 69//69 101//101
f 117//117 112//112 98//98
f 117//117 98//98 107//107
f 109//109 99//99 113//113
f 109//109 113//113 119//119
f 120//120 114//114 111//111
f 120//120 111//111 116//116
f 122//122 126//126 130//130
f 122//122 130//130 134//134
f 121//121 133//133 138//138
f 121//121 138//138 141//141
f 128//128 124//124 145//145
f 128//128 145//145 148//148
f 129//129 125//125 150//150
f 129//129 150//150 153//153
f 136//136 132//132 157//157
f 136//136 157//157 160//160
f 142//142 144//144 123//123
f 139//139 135//135 159//159
f 137//137 162//162 174//174
f 137//137 174//174 140//140
f 151//151 127//127 147//147
f 143//143 164//164 176//176
f 143//143 176//176 146//146
f 156//156 131//131 154//154
f 149//149 168//168 180//180
f 149//149 180//180 152//152
f 155//155 170//170 182//182
f 155//155 182//182 158//158
f 143//143 140//140 174//174
f 143//143 174//174 164//164
f 137//137 158//158 182//182
f 137//137 182//182 162//162
f 149//149 146//146 176//176
f 149//149 176//176 168//168
f 155//155 152//152 180//180
f 155//155 180//180 170//170
f 185//185 189//189 173//173
f 185//185 173//173 161//161
f 192//192 196//196 178//178
f 192//192 178//178 166//166
f 193//193 197//197 179//179
f 193//193 179//179 167//167
f 200//200 188//188 184//184
f 200//200 184//184 172//172
f 175//175 191//191 165//165
f 187//187 163//163 183//183
f 190//190 118//118 115//115
f 190//190 115//115 105//105
f 91//91 198//198 194//194
f 194//194 190//190 105//105
f 105//105 91//91 194//194
f 118//118 190//190 186//186
f 198//198 91//91 94//94
f 108//108 118//118 186//186
f 198//198 94//94 108//108
f 186//186 198//198 108//108
f 195//195 169//169 177//177
f 199//199 171//171 181//181
o Cone001_1
usemtl White
v 0 0.9806861552117425 -0.18160215532253687
v 0 0.9806861552117425 -0.18160215532253687
v 0.1572720904214293 0.9806861552117425 -0.09080107766126844
v 0.1572720904214293 0.9806861552117425 -0.09080107766126844
v 0 0.7349271181679597 -0.2359130925695183
v 0 0.7349271181679597 -0.2359130925695183
v 0.20430673676755973 0.7349271181679597 -0.11795654628475916
v 0.20430673676755973 0.7349271181679597 -0.11795654628475916
v -0.1572720904214293 0.9806861552117425 -0.09080106501602003
v -0.1572720904214293 0.9806861552117425 -0.09080106501602003
v 0.1572720651309325 0.9806861552117425 0.09080109030651684
v 0.1572720651309325 0.9806861552117425 0.09080109030651684
v 0 0.48916803054318336 -0.29022400452600294
v 0 0.48916803054318336 -0.29022400452600294
v 0.25134138311369014 0.48916803054318336 -0.14511200226300147
v 0.25134138311369014 0.48916803054318336 -0.14511200226300147
v -0.20430673676755973 0.7349271181679597 -0.11795652099426235
v -0.20430673676755973 0.7349271181679597 -0.11795652099426235
v 0.20430672412231132 0.7349271181679597 0.11795655893000756
v 0.20430672412231132 0.7349271181679597 0.11795655893000756
v -0.1572720904214293 0.9806861552117425 0.09080106501602003
v -0.1572720904214293 0.9806861552117425 0.09080106501602003
v -1.587616462754264e-8 0.9806861552117425 0.18160215532253687
v -1.587616462754264e-8 0.9806861552117425 0.18160215532253687
v 0 0.24340894291840698 -0.3445349417729844
v 0 0.24340894291840698 -0.3445349417729844
v 0.29837601681457215 0.24340894291840698 -0.1722674708864922
v 0.29837601681457215 0.24340894291840698 -0.1722674708864922
v -0.25134138311369014 0.48916803054318336 -0.14511198961775307
v -0.25134138311369014 0.48916803054318336 -0.14511198961775307
v 0.2513413325326965 0.48916803054318336 0.14511202755349828
v 0.2513413325326965 0.48916803054318336 0.14511202755349828
v -0.20430673676755973 0.7349271181679597 0.11795652099426235
v -0.20430673676755973 0.7349271181679597 0.11795652099426235
v -2.0624177577645335e-8 0.7349271181679597 0.2359130925695183
v -2.0624177577645335e-8 0.7349271181679597 0.2359130925695183
v -0.29837601681457215 0.24340894291840698 -0.1722674582412438
v -0.29837601681457215 0.24340894291840698 -0.1722674582412438
v 0.29837601681457215 0.24340894291840698 0.172267496176989
v 0.29837601681457215 0.24340894291840698 0.172267496176989
v -0.25134138311369014 0.48916803054318336 0.14511198961775307
v -0.25134138311369014 0.48916803054318336 0.14511198961775307
v -2.5372190527748032e-8 0.48916803054318336 0.29022400452600294
v -2.5372190527748032e-8 0.48916803054318336 0.29022400452600294
v -0.29837601681457215 0.24340894291840698 0.1722674582412438
v -0.29837601681457215 0.24340894291840698 0.1722674582412438
v -3.0120206492712885e-8 0.24340894291840698 0.3445349670634812
v -3.0120206492712885e-8 0.24340894291840698 0.3445349670634812
vn 0.4910893096747568 0.18799589749490567 -0.8505814672612234
vn -0.4910893096747568 0.18799589749490567 -0.8505814672612234
vn 0.4910893096747568 0.18799589749490567 -0.8505814672612234
vn 0.9821701261212297 0.1879942641545423 0
vn 0.4910893096747568 0.18799589749490567 -0.8505814672612234
vn -0.4910893096747568 0.18799589749490567 -0.8505814672612234
vn 0.4910893096747568 0.18799589749490567 -0.8505814672612234
vn 0.9821701261212297 0.1879942641545423 0
vn -0.4910893096747568 0.18799589749490567 -0.8505814672612234
vn -0.9821701261212297 0.1879942641545423 0
vn 0.4910893096747568 0.18799589749490567 0.8505814672612234
vn 0.9821701261212297 0.1879942641545423 0
vn 0.4910893096747568 0.18799589749490567 -0.8505814672612234
vn -0.4910893096747568 0.18799589749490567 -0.8505814672612234
vn 0.4910893096747568 0.18799589749490567 -0.8505814672612234
vn 0.9821701261212297 0.1879942641545423 0
vn -0.4910893096747568 0.18799589749490567 -0.8505814672612234
vn -0.9821701261212297 0.1879942641545423 0
vn 0.4910893096747568 0.18799589749490567 0.8505814672612234
vn 0.9821701261212297 0.1879942641545423 0
vn -0.4910893096747568 0.18799589749490567 0.8505814672612234
vn -0.9821701261212297 0.1879942641545423 0
vn 0.4910893096747568 0.18799589749490567 0.8505814672612234
vn -0.4910893096747568 0.18799589749490567 0.8505814672612234
vn 0.4910893096747568 0.18799589749490567 -0.8505814672612234
vn -0.4910893096747568 0.18799589749490567 -0.8505814672612234
vn 0.4910893096747568 0.18799589749490567 -0.8505814672612234
vn 0.9821701261212297 0.1879942641545423 0
vn -0.4910893096747568 0.18799589749490567 -0.8505814672612234
vn -0.9821701261212297 0.1879942641545423 0
vn 0.4910893096747568 0.18799589749490567 0.8505814672612234
vn 0.9821701261212297 0.1879942641545423 0
vn -0.4910893096747568 0.18799589749490567 0.8505814672612234
vn -0.9821701261212297 0.1879942641545423 0
vn 0.4910893096747568 0.18799589749490567 0.8505814672612234
vn -0.4910893096747568 0.18799589749490567 0.8505814672612234
vn -0.4910893096747568 0.18799589749490567 -0.8505814672612234
vn -0.9821701261212297 0.1879942641545423 0
vn 0.4910893096747568 0.18799589749490567 0.8505814672612234
vn 0.9821701261212297 0.1879942641545423 0
vn -0.4910893096747568 0.18799589749490567 0.8505814672612234
vn -0.9821701261212297 0.1879942641545423 0
vn 0.4910893096747568 0.18799589749490567 0.8505814672612234
vn -0.4910893096747568 0.18799589749490567 0.8505814672612234
vn -0.4910893096747568 0.18799589749490567 0.8505814672612234
vn -0.9821701261212297 0.1879942641545423 0
vn 0.4910893096747568 0.18799589749490567 0.8505814672612234
vn -0.4910893096747568 0.18799589749490567 0.8505814672612234
f 205//205 201//201 203//203
f 205//205 203//203 207//207
f 217//217 209//209 202//202
f 217//217 202//202 206//206
f 208//208 204//204 212//212
f 208//208 212//212 220//220
f 225//225 213//213 215//215
f 225//225 215//215 227//227
f 234//234 222//222 210//210
f 234//234 210//210 218//218
f 219//219 211//211 223//223
f 219//219 223//223 235//235
f 237//237 229//229 214//214
f 237//237 214//214 226//226
f 228//228 216//216 232//232
f 228//228 232//232 240//240
f 236//236 224//224 221//221
f 236//236 221//221 233//233
f 246//246 242//242 230//230
f 246//246 230//230 238//238
f 239//239 231//231 243//243
f 239//239 243//243 247//247
f 248//248 244//244 241//241
f 248//248 241//241 245//245
